<mxfile host="app.diagrams.net" modified="2022-10-10T03:15:07.631Z" agent="5.0 (Windows NT 10.0; Win64; x64) AppleWebKit/537.36 (KHTML, like Gecko) Chrome/106.0.0.0 Safari/537.36 Edg/106.0.1370.37" etag="cUAlnfwvs6cI_GvnIN4D" version="20.4.0" type="github">
  <diagram id="AKhVdlpeZ4rU74z41cKD" name="Page-1">
    <mxGraphModel dx="1421" dy="789" grid="1" gridSize="10" guides="1" tooltips="1" connect="1" arrows="1" fold="1" page="1" pageScale="1" pageWidth="850" pageHeight="1100" math="0" shadow="0">
      <root>
        <mxCell id="0" />
        <mxCell id="1" parent="0" />
        <mxCell id="D5iM0X9zBDPRsC4shFqq-1" value="" style="strokeWidth=1;shadow=0;dashed=0;align=left;html=1;shape=mxgraph.mockup.containers.browserWindow;rSize=0;mainText=,;recursiveResize=0;rounded=0;labelBackgroundColor=none;fontFamily=Verdana;fontSize=12;deletable=0;movable=0;" parent="1" vertex="1">
          <mxGeometry x="70" y="60" width="1470" height="820" as="geometry" />
        </mxCell>
        <mxCell id="D5iM0X9zBDPRsC4shFqq-2" value="Text" style="strokeWidth=1;shadow=0;dashed=0;align=center;html=1;shape=mxgraph.mockup.containers.anchor;fontSize=17;fontColor=#666666;align=left;" parent="D5iM0X9zBDPRsC4shFqq-1" vertex="1">
          <mxGeometry x="60" y="12" width="150" height="28" as="geometry" />
        </mxCell>
        <mxCell id="D5iM0X9zBDPRsC4shFqq-3" value="https://www.Example.com/login" style="strokeWidth=1;shadow=0;dashed=0;align=center;html=1;shape=mxgraph.mockup.containers.anchor;rSize=0;fontSize=17;fontColor=#666666;align=left;" parent="D5iM0X9zBDPRsC4shFqq-1" vertex="1">
          <mxGeometry x="130" y="60" width="300" height="26" as="geometry" />
        </mxCell>
        <mxCell id="D5iM0X9zBDPRsC4shFqq-4" value="&lt;font style=&quot;font-size: 32px;&quot;&gt;Mechanic Shop Logo&lt;/font&gt;" style="text;html=1;points=[];align=left;verticalAlign=top;spacingTop=-4;fontSize=30;fontFamily=Verdana" parent="D5iM0X9zBDPRsC4shFqq-1" vertex="1">
          <mxGeometry x="30" y="140" width="340" height="50" as="geometry" />
        </mxCell>
        <mxCell id="D5iM0X9zBDPRsC4shFqq-5" value="" style="verticalLabelPosition=bottom;shadow=0;dashed=0;align=center;html=1;verticalAlign=top;strokeWidth=1;shape=mxgraph.mockup.markup.line;strokeColor=#999999;rounded=0;labelBackgroundColor=none;fillColor=#ffffff;fontFamily=Verdana;fontSize=12;fontColor=#000000;" parent="D5iM0X9zBDPRsC4shFqq-1" vertex="1">
          <mxGeometry y="190" width="1470" height="20" as="geometry" />
        </mxCell>
        <mxCell id="D5iM0X9zBDPRsC4shFqq-6" value="" style="html=1;shadow=0;dashed=0;shape=mxgraph.bootstrap.rrect;rSize=5;fillColor=#ffffff;strokeColor=#999999;" parent="D5iM0X9zBDPRsC4shFqq-1" vertex="1">
          <mxGeometry x="500" y="230" width="420" height="340" as="geometry" />
        </mxCell>
        <mxCell id="D5iM0X9zBDPRsC4shFqq-16" value="example@gmail.com" style="html=1;shadow=0;dashed=0;shape=mxgraph.bootstrap.rrect;rSize=5;fillColor=none;strokeColor=#999999;align=left;spacing=15;fontSize=14;fontColor=#6C767D;" parent="D5iM0X9zBDPRsC4shFqq-1" vertex="1">
          <mxGeometry x="515" y="319.07" width="380" height="37.5" as="geometry" />
        </mxCell>
        <mxCell id="D5iM0X9zBDPRsC4shFqq-15" value="Email" style="fillColor=none;strokeColor=none;align=left;spacing=20;fontSize=14;" parent="D5iM0X9zBDPRsC4shFqq-1" vertex="1">
          <mxGeometry x="500" y="289.07211267605635" width="220" height="30.000000000000004" as="geometry" />
        </mxCell>
        <mxCell id="D5iM0X9zBDPRsC4shFqq-12" value="&lt;font style=&quot;font-size: 25px;&quot;&gt;Login&lt;/font&gt;" style="text;html=1;strokeColor=none;fillColor=none;align=center;verticalAlign=middle;whiteSpace=wrap;rounded=0;" parent="D5iM0X9zBDPRsC4shFqq-1" vertex="1">
          <mxGeometry x="637.5" y="250.00023255813954" width="145" height="31.39534883720931" as="geometry" />
        </mxCell>
        <mxCell id="D5iM0X9zBDPRsC4shFqq-17" value="Password" style="fillColor=none;strokeColor=none;align=left;spacing=20;fontSize=14;" parent="D5iM0X9zBDPRsC4shFqq-1" vertex="1">
          <mxGeometry x="500" y="369.0721126760563" width="220" height="30.000000000000004" as="geometry" />
        </mxCell>
        <mxCell id="D5iM0X9zBDPRsC4shFqq-18" value="Password" style="html=1;shadow=0;dashed=0;shape=mxgraph.bootstrap.rrect;rSize=5;fillColor=none;strokeColor=#999999;align=left;spacing=15;fontSize=14;fontColor=#6C767D;" parent="D5iM0X9zBDPRsC4shFqq-1" vertex="1">
          <mxGeometry x="515" y="399.07" width="380" height="36" as="geometry" />
        </mxCell>
        <mxCell id="D5iM0X9zBDPRsC4shFqq-21" value="&lt;font style=&quot;font-size: 12px; line-height: 1.2;&quot;&gt;Incorrect Email or Password.&lt;/font&gt;" style="html=1;shadow=0;dashed=0;shape=mxgraph.bootstrap.rrect;rSize=5;strokeColor=#F4C5CB;strokeWidth=1;fillColor=#F8D6DA;fontColor=#711623;whiteSpace=wrap;align=left;verticalAlign=middle;spacingLeft=10;fontSize=25;" parent="D5iM0X9zBDPRsC4shFqq-1" vertex="1">
          <mxGeometry x="520" y="452.07" width="380" height="36.51" as="geometry" />
        </mxCell>
        <mxCell id="D5iM0X9zBDPRsC4shFqq-22" value="Don&#39;t have an account?" style="text;html=1;strokeColor=none;fillColor=none;align=center;verticalAlign=middle;whiteSpace=wrap;rounded=0;" parent="D5iM0X9zBDPRsC4shFqq-1" vertex="1">
          <mxGeometry x="515" y="519.0670422535212" width="170" height="19.014084507042256" as="geometry" />
        </mxCell>
        <mxCell id="D5iM0X9zBDPRsC4shFqq-23" value="&lt;b&gt;Register&lt;/b&gt;" style="text;html=1;strokeColor=none;fillColor=none;align=center;verticalAlign=middle;whiteSpace=wrap;rounded=0;" parent="D5iM0X9zBDPRsC4shFqq-1" vertex="1">
          <mxGeometry x="675" y="519.0670422535212" width="60" height="19.014084507042256" as="geometry" />
        </mxCell>
        <mxCell id="D5iM0X9zBDPRsC4shFqq-11" value="Login" style="html=1;shadow=0;dashed=0;shape=mxgraph.bootstrap.rrect;rSize=5;fillColor=#80FF00;strokeColor=none;align=center;fontSize=14;fontColor=#FFFFFF;" parent="D5iM0X9zBDPRsC4shFqq-1" vertex="1">
          <mxGeometry width="90" height="40" relative="1" as="geometry">
            <mxPoint x="805" y="509" as="offset" />
          </mxGeometry>
        </mxCell>
        <mxCell id="cFUKvSRAnD4pRd3IyLYO-1" value="" style="verticalLabelPosition=bottom;shadow=0;dashed=0;align=center;html=1;verticalAlign=top;strokeWidth=1;shape=mxgraph.mockup.markup.line;strokeColor=#999999;rounded=0;labelBackgroundColor=none;fillColor=#ffffff;fontFamily=Verdana;fontSize=12;fontColor=#000000;" parent="D5iM0X9zBDPRsC4shFqq-1" vertex="1">
          <mxGeometry y="635" width="1470" height="20" as="geometry" />
        </mxCell>
        <mxCell id="cFUKvSRAnD4pRd3IyLYO-2" value="&lt;h3&gt;Contact Details&lt;/h3&gt;" style="strokeWidth=1;shadow=0;dashed=0;align=center;html=1;shape=mxgraph.mockup.text.textBox;fontColor=#666666;align=left;fontSize=17;spacingLeft=4;spacingTop=-3;strokeColor=#666666;mainText=" parent="D5iM0X9zBDPRsC4shFqq-1" vertex="1">
          <mxGeometry x="170" y="660" width="160" height="30" as="geometry" />
        </mxCell>
        <mxCell id="cFUKvSRAnD4pRd3IyLYO-3" value="&lt;div style=&quot;text-align: center;&quot;&gt;&lt;span style=&quot;font-size: 15px; background-color: initial;&quot;&gt;Email Address: someEmail@gmail.com&lt;/span&gt;&lt;/div&gt;&lt;font style=&quot;font-size: 15px;&quot;&gt;&lt;div style=&quot;text-align: center;&quot;&gt;&lt;span style=&quot;background-color: initial;&quot;&gt;Phone Number: (437) 975-6985&lt;/span&gt;&lt;/div&gt;&lt;div style=&quot;text-align: center;&quot;&gt;&lt;span style=&quot;background-color: initial;&quot;&gt;Address: 517 Maple Road, North York, Ontario&lt;/span&gt;&lt;/div&gt;&lt;div style=&quot;text-align: center;&quot;&gt;&lt;span style=&quot;background-color: initial;&quot;&gt;Opening Hours:&lt;/span&gt;&lt;/div&gt;&lt;span style=&quot;white-space: pre;&quot;&gt;&lt;div style=&quot;text-align: center;&quot;&gt;&lt;span style=&quot;background-color: initial;&quot;&gt; &lt;/span&gt;&lt;span style=&quot;background-color: initial; white-space: normal;&quot;&gt;Monday to Friday - 8 to 5&lt;/span&gt;&lt;/div&gt;&lt;/span&gt;&lt;span style=&quot;white-space: pre;&quot;&gt;&lt;div style=&quot;text-align: center;&quot;&gt;&lt;span style=&quot;background-color: initial;&quot;&gt; &lt;/span&gt;&lt;span style=&quot;background-color: initial; white-space: normal;&quot;&gt;Weekends - 9 to 5&lt;/span&gt;&lt;/div&gt;&lt;/span&gt;&lt;/font&gt;" style="text;spacingTop=-5;whiteSpace=wrap;html=1;align=left;fontSize=12;fontFamily=Helvetica;fillColor=none;strokeColor=none;" parent="D5iM0X9zBDPRsC4shFqq-1" vertex="1">
          <mxGeometry x="80" y="700" width="360" height="100" as="geometry" />
        </mxCell>
        <mxCell id="cFUKvSRAnD4pRd3IyLYO-4" value="" style="verticalLabelPosition=bottom;shadow=0;dashed=0;align=center;html=1;verticalAlign=top;strokeWidth=1;shape=mxgraph.mockup.markup.line;strokeColor=#999999;direction=north;fontSize=32;" parent="D5iM0X9zBDPRsC4shFqq-1" vertex="1">
          <mxGeometry x="430" y="650" width="20" height="170" as="geometry" />
        </mxCell>
        <mxCell id="cFUKvSRAnD4pRd3IyLYO-5" value="Powered By: Auto Quotes Co." style="text;html=1;align=center;verticalAlign=middle;resizable=0;points=[];autosize=1;strokeColor=none;fillColor=none;fontSize=15;" parent="D5iM0X9zBDPRsC4shFqq-1" vertex="1">
          <mxGeometry x="1130" y="790" width="220" height="30" as="geometry" />
        </mxCell>
        <mxCell id="cFUKvSRAnD4pRd3IyLYO-6" value="&lt;h3&gt;Terms of Service&lt;/h3&gt;" style="strokeWidth=1;shadow=0;dashed=0;align=center;html=1;shape=mxgraph.mockup.text.textBox;fontColor=#666666;align=left;fontSize=17;spacingLeft=4;spacingTop=-3;strokeColor=#666666;mainText=" parent="D5iM0X9zBDPRsC4shFqq-1" vertex="1">
          <mxGeometry x="820" y="660" width="175" height="30" as="geometry" />
        </mxCell>
        <mxCell id="cFUKvSRAnD4pRd3IyLYO-7" value="Privacy Policy&lt;br&gt;Return Policy&lt;br&gt;Terms and Conditions" style="text;html=1;align=center;verticalAlign=top;resizable=0;points=[];autosize=1;strokeColor=none;fillColor=none;fontSize=15;" parent="D5iM0X9zBDPRsC4shFqq-1" vertex="1">
          <mxGeometry x="822.5" y="700" width="170" height="70" as="geometry" />
        </mxCell>
        <mxCell id="cFUKvSRAnD4pRd3IyLYO-8" value="" style="verticalLabelPosition=bottom;verticalAlign=top;html=1;shape=mxgraph.basic.polygon;polyCoords=[[0.25,0],[0.75,0],[1,0.25],[1,0.75],[0.75,1],[0.25,1],[0,0.75],[0,0.25]];polyline=0;fontSize=15;" parent="D5iM0X9zBDPRsC4shFqq-1" vertex="1">
          <mxGeometry x="1190" y="670" width="100" height="100" as="geometry" />
        </mxCell>
        <mxCell id="cFUKvSRAnD4pRd3IyLYO-9" value="Auto Quotes&lt;br&gt;Logo" style="text;html=1;align=center;verticalAlign=middle;resizable=0;points=[];autosize=1;strokeColor=none;fillColor=none;fontSize=15;" parent="D5iM0X9zBDPRsC4shFqq-1" vertex="1">
          <mxGeometry x="1185" y="695" width="110" height="50" as="geometry" />
        </mxCell>
        <mxCell id="cFUKvSRAnD4pRd3IyLYO-10" value="" style="verticalLabelPosition=bottom;shadow=0;dashed=0;align=center;html=1;verticalAlign=top;strokeWidth=1;shape=mxgraph.mockup.markup.line;strokeColor=#999999;direction=north;fontSize=15;" parent="D5iM0X9zBDPRsC4shFqq-1" vertex="1">
          <mxGeometry x="710" y="650" width="20" height="170" as="geometry" />
        </mxCell>
        <mxCell id="cFUKvSRAnD4pRd3IyLYO-11" value="&lt;h3&gt;Navigation&lt;/h3&gt;" style="strokeWidth=1;shadow=0;dashed=0;align=center;html=1;shape=mxgraph.mockup.text.textBox;fontColor=#666666;align=left;fontSize=17;spacingLeft=4;spacingTop=-3;strokeColor=#666666;mainText=" parent="D5iM0X9zBDPRsC4shFqq-1" vertex="1">
          <mxGeometry x="525" y="660" width="110" height="30" as="geometry" />
        </mxCell>
        <mxCell id="cFUKvSRAnD4pRd3IyLYO-12" value="" style="verticalLabelPosition=bottom;shadow=0;dashed=0;align=center;html=1;verticalAlign=top;strokeWidth=1;shape=mxgraph.mockup.markup.line;strokeColor=#999999;direction=north;fontSize=15;" parent="D5iM0X9zBDPRsC4shFqq-1" vertex="1">
          <mxGeometry x="1060" y="650" width="20" height="170" as="geometry" />
        </mxCell>
        <mxCell id="cFUKvSRAnD4pRd3IyLYO-13" value="Get a Quote&lt;br&gt;About us" style="text;html=1;align=center;verticalAlign=middle;resizable=0;points=[];autosize=1;strokeColor=none;fillColor=none;fontSize=15;" parent="D5iM0X9zBDPRsC4shFqq-1" vertex="1">
          <mxGeometry x="525" y="700" width="110" height="50" as="geometry" />
        </mxCell>
      </root>
    </mxGraphModel>
  </diagram>
</mxfile>
